# xmcd CD database file
#
# Track frame offsets:
#	150
#	11052
#	31465
#	51108
#	67445
#	91915
#	113842
#	148365
#	168977
#	186299
#	206393
#	234577
#	250727
#
# Disc length: 3544 seconds
#
# Revision: 0
# Processed by: cddbd v1.5.1PL0 Copyright (c) Steve Scherf et al.
# Submitted via: CDex 1.51
#
DISCID=bc0dd60d
DTITLE=Vikki True - 'bout time
DYEAR=2002
DGENRE=Jazz
TTITLE0=Swing! (It) Brother Swing! It Don't Mean a Thing
TTITLE1=Time After Time (duo)
TTITLE2=Don't You Feel My Leg
TTITLE3=Lullaby of Birdland
TTITLE4=Green Dolphin Street
TTITLE5=Shall We Dance
TTITLE6=Summertime
TTITLE7=Our Love Is Here To Stay
TTITLE8=Danny's All Star Joint
TTITLE9=prelude To A Kiss
TTITLE10=Throw It Away
TTITLE11=On The Street Where You Live
TTITLE12=Time After Time (trio)
EXTD=YEAR: 2002
EXTT0=
EXTT1=
EXTT2=
EXTT3=
EXTT4=
EXTT5=
EXTT6=
EXTT7=
EXTT8=
EXTT9=
EXTT10=
EXTT11=
EXTT12=
PLAYORDER=
